<svg height="35" viewBox="0 0 25 35" width="25" xmlns="http://www.w3.org/2000/svg"><path d="m0 0h25v35h-25z" fill="none"/><path d="m21.9354 18.9541-1.9774-1.4541 1.9774-1.4541c.9351-.6875 1.4712-1.7627 1.4712-2.9492-.0005-1.1865-.5366-2.2607-1.4712-2.9473l-6.2515-4.5977c-1.9042-1.4004-4.4637-1.4004-6.368 0l-6.251 4.5967c-.9351.6875-1.4712 1.7617-1.4717 2.9482 0 1.1865.5361 2.2617 1.4712 2.9492l1.9773 1.4541-1.9773 1.4541c-.9351.6875-1.4712 1.7627-1.4712 2.9492.0005 1.1865.5366 2.2607 1.4712 2.9473l6.2515 4.5977c.9521.7002 2.0684 1.0508 3.1841 1.0508s2.2319-.3506 3.184-1.0508l6.251-4.5967c.9351-.6875 1.4712-1.7617 1.4717-2.9482 0-1.1865-.5361-2.2617-1.4712-2.9492zm-12.0267 9.6895-6.2515-4.5977-.0005-.001c-.6753-.4961-1.063-1.2773-1.0635-2.1416 0-.8652.3877-1.6465 1.064-2.1445l2.228-1.6387 3.4307 2.5225c.9521.7002 2.0684 1.0508 3.1841 1.0508s2.2319-.3506 3.184-1.0508l3.4304-2.5225 2.2283 1.6387c.6763.498 1.064 1.2793 1.064 2.1445-.0005.8643-.3882 1.6455-1.064 2.1426l-6.2515 4.5977c-1.5497 1.1387-3.6327 1.1387-5.1825 0zm5.1825-22.2872 6.252 4.5986c.6753.4961 1.063 1.2773 1.0635 2.1416 0 .8652-.3877 1.6465-1.064 2.1445l-2.2283 1.6384-.4219.3103-.4218.3101-3.1796 2.3379c-1.5497 1.1387-3.6327 1.1387-5.1825 0l-3.1797-2.3379-.4216-.3101-.4221-.3103-2.228-1.6384c-.6763-.498-1.064-1.2793-1.064-2.1445.0005-.8643.3882-1.6455 1.064-2.1426l6.2515-4.5977c1.5498-1.1387 3.6328-1.1387 5.1825 0z" fill="#2997ff"/></svg>