<svg height="35" viewBox="0 0 26 35" width="26" xmlns="http://www.w3.org/2000/svg"><path d="m0 0h26v35h-26z" fill="none"/><path d="m9.3169 3.0015c-2.7456 1.4514-4.6226 4.3323-4.6226 7.6462 0 3.5737 1.6133 6.4126 4.3528 7.7368v10.3167c0 .8555.3979 1.2278.6885 1.4998.0435.0405.0911.0852.1428.1367l.7544.7441-.6411.6455c-.1909.1819-.416.2727-.6409.2727-.2283 0-.4563-.0935-.6479-.2805l-2.1174-2.0889c-.3486-.3486-.5383-.4194-.5383-.9294v-10.9758c-2.8367-1.0601-4.3528-3.8342-4.3528-7.0776 0-4.2136 3.4099-7.6296 7.6226-7.6462zm-3.6226 7.6462c0 3.2434 1.5161 6.0176 4.3528 7.0776v10.9758c0 .51.1897.5808.5383.9294l2.1174 2.0889c.1917.187.4197.2805.6479.2805.2249 0 .45-.0908.6409-.2727l.6411-.6455-.7544-.7441c-.0518-.0515-.0994-.0962-.1428-.1367-.2905-.272-.6885-.6443-.6885-1.4998v-10.3167c-2.7395-1.3242-4.3528-4.1631-4.3528-7.7368 0-3.314 1.877-6.1948 4.6226-7.6462-4.2126.0166-7.6226 3.4326-7.6226 7.6462zm16.6824 9.9629c.3889.3884.3936 1.0198 0 1.4038l-2.6726 2.6426v.176l1.8235 1.8848c.3896.3921.4001 1.0674 0 1.449l-3.5359 3.5605c-.1909.1819-.416.2727-.6409.2727-.2283 0-.4563-.0935-.6479-.2805l-2.1174-2.0889c-.3486-.3486-.5383-.4194-.5383-.9294v-10.9758c-2.8367-1.0601-4.3528-3.8342-4.3528-7.0776 0-4.2239 3.426-7.6477 7.6528-7.6477.1616 0 .325.0049.4888.0151 3.874.2405 7.1641 3.3042 7.1577 7.6326-.0052 3.5459-2.219 6.313-5.2981 7.2398v.0234l2.6812 2.6997zm-2.7711-12.0562c0-1.1912-.9663-2.157-2.1582-2.157s-2.1582.9658-2.1582 2.157.9661 2.1567 2.1582 2.1567 2.1582-.9656 2.1582-2.1567z" fill="#f5f5f7"/></svg>