<svg height="35" viewBox="0 0 28 35" width="28" xmlns="http://www.w3.org/2000/svg"><path d="m0 0h28v35h-28z" fill="none"/><path d="m19.2141 22.3433v-1.1119a7.47 7.47 0 0 1 -2.7825.8506 8.5555 8.5555 0 0 0 2.7825-2.3371v-1.8767a7.5479 7.5479 0 0 1 -5.2695 4.0444c-.0723-.0171-.1436-.0364-.2151-.0557a8.5109 8.5109 0 0 0 0-14.5319c.1568-.042.313-.0853.4737-.117a7.544 7.544 0 0 1 5.6015 5.6245 2.2634 2.2634 0 0 1 .8985-.5212 8.535 8.535 0 0 0 -3.9715-5.166 7.54 7.54 0 0 1 5.95 4.7175l.9873-.2146a8.4531 8.4531 0 0 0 -9.4136-5.4592 8.4737 8.4737 0 0 0 -3.5594 0 8.5254 8.5254 0 1 0 .3631 16.7424 7.9518 7.9518 0 0 0 2.8332 0 8.4653 8.4653 0 0 0 5.3218-.5881zm-2.4055-7.7522a7.5321 7.5321 0 0 1 -4.3328 6.8071 7.5137 7.5137 0 0 1 0-13.6143 7.5324 7.5324 0 0 1 4.3328 6.8072zm-15.0586 0a7.5346 7.5346 0 0 1 6.47-7.4458 8.52 8.52 0 0 0 .3 14.9367 7.54 7.54 0 0 1 -6.77-7.4909zm9.2568 7.3215a7.5241 7.5241 0 0 1 -.2585-14.7046c.1606.0317.3166.0752.4734.1172a8.5112 8.5112 0 0 0 0 14.5317c-.0717.0193-.1426.0386-.2149.0557zm16.7432-9.14v4.2129a.6517.6517 0 0 1 -.5466.6638l-4.9219 1.0852c-.6511.1465-.802.3338-.802 1.0232v6.4251a4.1267 4.1267 0 0 1 -4.08 4.4538 2.8577 2.8577 0 0 1 -3.1118-2.8423c0-1.696 1.0547-2.7722 3.27-3.2468l1.8462-.3948c.5728-.1218.81-.5439.81-1.1987v-8.714a1.0421 1.0421 0 0 1 .9639-1.0273l5.6155-1.22a.9147.9147 0 0 1 .19-.02.76.76 0 0 1 .7667.8z" fill="#2997ff"/></svg>