<svg class="icon-control icon-control-replay-super svg-icon replay-icon" xmlns="http://www.w3.org/2000/svg" viewBox="0 0 56 56">
                                                <path d="m36.2448 26.6447c-1.1073 0-2.0052.8978-2.0052 2.0052 0 3.4405-2.7992 6.2397-6.2397 6.2397s-6.2397-2.7992-6.2397-6.2397 2.7992-6.2397 6.2397-6.2397c.0283 0 .0546-.0072.0825-.0083l-1.2839 1.2841c-.7833.7828-.7833 2.0526 0 2.8354.3911.3916.9047.5874 1.4177.5874s1.0266-.1958 1.4177-.5874l4.4406-4.4406c.7833-.7828.7833-2.0526 0-2.8354l-4.657-4.657c-.7823-.7833-2.0531-.7833-2.8354 0-.7833.7828-.7833 2.0526 0 2.8354l.9973.9974c-5.4561.223-9.8295 4.7189-9.8295 10.2287 0 5.6517 4.5983 10.25 10.25 10.25s10.25-4.5983 10.25-10.25c0-1.1073-.8978-2.0052-2.0052-2.0052z"></path>
                                            </svg>