<svg height="23" viewBox="0 0 23 23" width="23" xmlns="http://www.w3.org/2000/svg"><path d="m23.9908871 64.4258975c.057957 1.0275171-.1738712 2.0253214-.3185471 3.0319825-.0640274.445405-.0888867.900238-.1994532 1.3339294-.1192383.4676895-.3220158.9140945-.4810003 1.372356-.3178244.9158087-.7301722 1.7843342-1.3915476 2.5085816-.5534104.6063965-1.111735 1.2152214-1.7259931 1.7584784-.3870549.3422676-.8710903.5841119-1.3302663.8383842-.6573285.3641236-1.342407.6796783-1.9949659 1.0512301-.5247933.2989842-1.0942467.3229829-1.6673134.3746945-.5340433.0481403-1.0675084.1032802-1.5996728.1677054-1.3500671.1634199-2.6836577.275414-4.00525212-.2414158-.73797696-.2885562-1.45528594-.603111-2.15539569-.9685202-.43301585-.2258452-.91835205-.3601238-1.3351804-.6091106-1.16969203-.6992488-2.11377066-1.6364849-2.78555227-2.817851-.88756688-1.5607746-1.5136766-3.2269722-1.82008301-4.9884504-.21795324-1.2532194-.26738295-2.5441511.01271876-3.7876568.36884394-1.6379134 1.03094196-3.154976 2.10090737-4.5081901.83235592-1.0523729 1.77036423-1.9947516 2.69507567-2.9562722.02471485-.0257129.05101956-.0509973.08021488-.0712819 1.47638751-1.0283742 3.02778678-1.8836147 4.89744401-1.9103276.7654379-.0108565 1.540993-.0078567 2.2951575.1021375.7053129.1028517 1.3937156.3378393 2.0795167.5466854 1.374493.4186921 2.6298921 1.075943 3.7982833 1.9023279.4187073.29627.8666099.5535421 1.2773679.8596688.6564613.4889741 1.2194108 1.0730861 1.6352274 1.7783345.5116409.8682398 1.0432272 1.7281943 1.4932977 2.6274325.3590158.7178191.4506487 1.5177768.445012 2.3204487-.0007227.0948521 0 .1899899 0 .2846992m-18.70026649-4.8970513c-.14737748.1910816-.29099459.3589024-.41421893.5399947-.36041676.5297199-.77376791 1.0353228-1.05492769 1.6040012-.48971554.9910843-.81874769 2.0346841-.82945027 3.1647628-.00911166.9880876.01070258 1.9674702.29837069 2.9200243.34277195 1.1353589.75091644 2.2477423 1.33637672 3.2879171.53845569.9565498 1.2867688 1.7288678 2.28731579 2.190803.99635274.4600801 1.92834533 1.0680022 3.00728152 1.3451348.36706976.0943279.74831316.2221913 1.11711836.2054949.8719714-.0398147 1.740327-.1586877 2.6105628-.2417419.1314682-.012558.1839687-.0533715.1773158-.1987877-.022273-.4853388-.0444013-.9716765-.0305169-1.4564445.0086778-.3053881-.1080382-.5231555-.3327925-.7076727-.1109308-.0910457-.2270683-.1780955-.3258503-.280843-.3206436-.333929-.6641387-.6445972-.8462273-1.092262-.4240537-1.0424581-.3432058-2.0589439.0915505-3.0737172.2649613-.6187678.2606224-.6298987-.3851484-.8485224-.5462657-.1849453-.9616416-.476063-1.0656303-1.0834143-.0125827-.0744919-.1016745-.1482702-.1728322-.198645-.1060135-.0752054-.2471719-.1093118-.3378546-.1969325-.1543197-.1486984-.3275858-.2089198-.53570771-.2534436-.4860998-.1037464-.93126945-.2991092-1.29255398-.660723-.14867914-.148841-.33250326-.2718525-.51820755-.3755988-.61279526-.3417779-1.05029955-.7968633-1.21054905-1.5065339-.12669546-.5622566-.332214-1.1071033-.50533553-1.6590852-.0049174-.0156975-.03601275-.0234036-.12973267-.0802001.08128178.5424207.14448488 1.0323261.23039482 1.5183784.06956679.3928661-.0455583.6625781-.35289602.7483436-.2866557.0799147-.5493029-.0772033-.69668038-.4188384-.02328535-.0542278-.04917403-.1098826-.05785181-.1672499-.06898827-.4566552-.1817993-.9131676-.18830763-1.3708217-.00752073-.5375687.0783892-1.0764218.12698472-1.653377m16.49784089 4.9367081c-.0258388-.0031196-.0516776-.0060975-.0773729-.0089335 0-.2946649.0322986-.5937256-.0086129-.8825766-.0456486-.3223163-.1132601-.655835-.2506365-.9480892-.2649914-.5636636-.5706072-1.1107363-.8872762-1.6487337-.463089-.7872856-.9914928-1.5308961-1.7570395-2.0652066-.4470115-.3121065-.9190005-.5897551-1.3865395-.872225-.3855726-.232981-.7791839-.4527743-1.1735129-.6712914-.0651713-.0361596-.1511571-.035167-.2276687-.0511906.0094742.0663634.0285662.1330104.0265566.199232-.0050243.1623635-.0885698.3804552-.0124888.4720594.0912971.1094713.3255691.0907534.4803149.1637815.2720253.1287563.3951903.3837166.341503.6358408-.0489502.2292941-.2371429.4263991-.4768697.3967625-.3175303-.0391374-.5793637.0835214-.8614374.1680355-.1920685.0575717-.395621.1115983-.5932879.1097549-.5496491-.0055303-.9814444.250139-1.3869702.5682012-.0567019.0443841-.0864165.1661922-.0750761.2447505.0790954.5477818-.168383.9380213-.6064945 1.2254543-.1557506.1019557-.1643635.1881714-.0956036.3427358.0712003.1595274.1281892.3322424.1513006.5043902.0442131.3323843-.1055085.5578497-.3835628.6296016-.2721689.0701921-.5051489-.0669306-.6412333-.3742159-.1095279-.2477283-.2166154-.4968747-.3367659-.7394982-.0368921-.0744461-.1122553-.1789543-.1719717-.1802306-.0670373-.0012762-.1547458.0864994-.2015427.156266-.2494882.3718053-.5486442.460148-.9399587.2396457-.1413958-.0796928-.2493446-.2155393-.38112256-.3142336-.11656177-.0872083-.27202531-.182074-.36145632.0036868-.18804916.3910904-.3643273.7899798-.50758918 1.1986537-.07909548.2254654.03875822.3993148.27432209.5035394.18187656.0806854.3502595.1968214.51275694.3133828.10249397.0735953.19364757.2572291.27102043.2471611.1072311-.013613.1986718-.1608036.2934141-.254393.2410188-.2385113.5661572-.3115394.8127743-.1802306.2522156.1345703.3462402.3995985.2713076.7658735-.0048807.0229719-.0241162.0514741-.0160775.067356.0356002.0714683.0644535.183492.121586.2016426.4231824.1340031.608217.443699.6408026.8478351.0170824.2129869.1167054.3142336.3015964.3821568.2895383.1064935.5724733.2311376.8643084.3309663.0727793.0250989.1777136.0045376.2519285-.0293531.236138-.1080532.4560551-.2565201.6995141-.3407506.1306296-.0452348.313511-.0294948.4441406.0253826.533428.224331 1.0882447.3234507 1.6622971.3625881.156899.010777.3792564.0561537.4490212.1633561.2233622.3437284.5117521.5574243.9106747.6400949.156899.0323309.3235594.1264876.4663906.0977017.4470115-.0896189.7378418.0974181.9613475.4448334.0890004.1385407.1815895.2796338.2415929.4313621.1666604.4217197.4817504.6887331.8786633.8849873.5895557.2912616.7836339.220786.9095263-.4041361.1227344-.6098911.2044138-1.2282903.2924093-1.8445625.102494-.7187951.1917814-1.4395755.2870979-2.1592214m-9.7212253-8.4751697c-.6143097.0037279-.8082543.2421685-.581075.5798278.1726987.2566498.4410039.5024028.7278234.6333085.514454.2348561.6897326.1108326.842703-.415658.0409742-.1405121.1276271-.2847522.2353741-.3884158.1118444-.1079649.1455344-.1635963-.0317171-.1971472-.4545102-.0858845-.9109933-.1623059-1.1931084-.2119153m3.5289176.9606329c-.4669387-.1792307-.8645869-.3363762-1.2654716-.4826489-.0885624-.0321087-.1880112-.0249734-.2826053-.0356763.0279516.1133146.0332477.2458265.0897393.3350172.0561975.0883412.1571174.1617324.2502404.1911228.372786.1177317.7492498.2422589 1.2080972-.0078148" fill="#00d959" fill-rule="evenodd" transform="translate(-1 -54)"/></svg>