<svg height="35" viewBox="0 0 29 35" width="29" xmlns="http://www.w3.org/2000/svg"><path d="m0 0h29v35h-29z" fill="none"/><path d="m28.514 16.1044a10.92 10.92 0 0 0 -1.3933-1.8786 17.0958 17.0958 0 0 0 -2.1926-2.0218 18.4892 18.4892 0 0 0 -2.9-1.8467 17.3469 17.3469 0 0 0 -3.5156-1.3479 15.42 15.42 0 0 0 -4.0071-.5094 15.2362 15.2362 0 0 0 -3.9909.5094 17.5851 17.5851 0 0 0 -3.5045 1.3479 18.61 18.61 0 0 0 -2.9111 1.8467 17.5464 17.5464 0 0 0 -2.2089 2.0218 10.6683 10.6683 0 0 0 -1.404 1.8786 3.0932 3.0932 0 0 0 -.486 1.3956 3.0932 3.0932 0 0 0 .486 1.3956 10.792 10.792 0 0 0 1.3987 1.8786 17.4085 17.4085 0 0 0 2.198 2.0218 18.3809 18.3809 0 0 0 2.9054 1.8467 17.5406 17.5406 0 0 0 3.51 1.3478 15.3345 15.3345 0 0 0 4.007.5095 15.44 15.44 0 0 0 4.0233-.5095 17.3734 17.3734 0 0 0 3.51-1.3478 18.4939 18.4939 0 0 0 2.9-1.8467 17.0958 17.0958 0 0 0 2.1926-2.0218 10.6637 10.6637 0 0 0 1.3878-1.8786 3.1159 3.1159 0 0 0 .4812-1.3956 3.0932 3.0932 0 0 0 -.486-1.3956zm-.8688 2.3056a9.7422 9.7422 0 0 1 -1.2588 1.6972 16.1751 16.1751 0 0 1 -2.0647 1.902 17.5748 17.5748 0 0 1 -2.7436 1.746 16.4622 16.4622 0 0 1 -3.3089 1.27 14.5169 14.5169 0 0 1 -3.7638.4752 14.41 14.41 0 0 1 -3.7468-.475 16.63 16.63 0 0 1 -3.3109-1.27 17.4614 17.4614 0 0 1 -2.7477-1.7462 16.4892 16.4892 0 0 1 -2.072-1.9042 9.8594 9.8594 0 0 1 -1.27-1.6992 2.1848 2.1848 0 0 1 -.358-.9058 2.1848 2.1848 0 0 1 .3578-.9058 9.7339 9.7339 0 0 1 1.2735-1.697 16.6147 16.6147 0 0 1 2.0832-1.9051 17.69 17.69 0 0 1 2.7548-1.7467 16.6692 16.6692 0 0 1 3.3062-1.2706 14.3041 14.3041 0 0 1 3.73-.4748 14.4919 14.4919 0 0 1 3.7482.4753 16.4236 16.4236 0 0 1 3.3137 1.2695 17.5681 17.5681 0 0 1 2.7436 1.746 16.1751 16.1751 0 0 1 2.0647 1.902 9.991 9.991 0 0 1 1.2666 1.7014 2.1848 2.1848 0 0 1 .3577.9058 2.206 2.206 0 0 1 -.3548.91zm-13.1452-6.91a6 6 0 1 0 6 6 6 6 0 0 0 -6-6zm0 8a2 2 0 1 1 2-2 2 2 0 0 1 -2 2z" fill="#2997ff"/></svg>