<svg height="23" viewBox="0 0 23 23" width="23" xmlns="http://www.w3.org/2000/svg"><path d="m6.84650975 5.70560489c-1.0050665-1.59216317-2.67511963-2.98391701-4.65652488-3.3930187-.46955703 1.66590248-.08982478 3.99000413.90775632 5.61792581.8774101 1.44852302 2.52966012 3.0128067 4.48618148 3.3673615.73498522-1.78812796.27271128-4.00273177-.73741292-5.59226861m-2.17622793 7.44787301c-1.82684188.4626385-3.66824994 1.6188305-4.67028182 3.3740283 1.44144501.9608334 3.77203399 1.3184186 5.63084055.8739624 1.65083386-.3854647 3.65105376-1.4713519 4.59320245-3.2200848-1.47563508-1.250538-3.72772853-1.495999-5.55376118-1.0279059m6.42085358 4.3686c-.1240149 1.8778272.4080554 3.9839433 1.7701956 5.4779221 1.3605218-1.0719474 2.421223-3.1750332 2.5723471-5.0777096.1428295-1.6869131-.2731159-3.9221235-1.6473946-5.3573128-1.64699 1.0151782-2.5767979 3.0780609-2.6951481 4.9571003m6.144703-4.7482059c1.7501672.6979981 3.9205281.8434565 5.7641616.0115154-.6004504-1.6232751-2.2755612-3.28049048-4.0409014-4.0120249-1.5626276-.65698701-3.819981-.95275238-5.611419-.09091149.4578232 1.87782729 2.1353617 3.39827139 3.8881588 4.09142099m-2.6233287-7.30302077c1.2057561-1.44650276 2.0149884-3.46271751 1.7924495-5.47085123-1.7317571.06868868-3.8276687 1.14750498-5.0698403 2.59804826-1.1086482 1.28084183-2.08781927 3.33342117-1.82077262 5.30114979 1.93001902.14545837 3.89645342-.97780355 5.09816342-2.42834682" fill="#00d959"/></svg>