<svg height="35" viewBox="0 0 26 35" width="26" xmlns="http://www.w3.org/2000/svg"><path d="m0 0h26v35h-26z" fill="none"/><path d="m16.443 14.5c0 2.3472-1.7653 4.25-3.943 4.25s-3.943-1.9028-3.943-4.25 1.7653-4.25 3.943-4.25 3.943 1.9028 3.943 4.25zm8.5667 3c0 6.9036-5.5964 12.5-12.5 12.5s-12.5001-5.5964-12.5001-12.5 5.5965-12.5 12.5-12.5 12.5 5.5964 12.5 12.5zm-1 0c0-6.3411-5.1589-11.5-11.5-11.5s-11.5001 5.1589-11.5001 11.5c0 3.2146 1.3293 6.1216 3.4629 8.2105.7861-2.6851 3.7045-5.2051 8.0275-5.2051 4.3304 0 7.2515 2.5286 8.0316 5.2189 2.1422-2.0899 3.4781-5.0023 3.4781-8.2243z" fill="#f5f5f7"/></svg>