<svg height="25" viewBox="0 0 26 25" width="26" xmlns="http://www.w3.org/2000/svg"><g fill="none" fill-rule="evenodd" transform="translate(1.9981 3)"><path d="m14.4262036 5.43269228c-1.7676941-3.11799161-3.1961793-5.61684925-4.4065737-5.42202372-.89415282.14391634-2.23292832 2.05692677-3.62804231 4.60023204m8.68908481 13.8328081c3.1398408-.1499863 5.6144162-.4080567 5.8827602-.859582.304856-.5132037-1.2433731-3.1925931-3.1459262-6.3777457m-14.85648195.5316093c-1.50523908 3.469265-2.59000058 6.4223892-2.51108742 6.6783057.07125741.231441 2.66636182.2625739 6.00701892.2316368" stroke="#00d959" stroke-linecap="round" stroke-linejoin="round" stroke-width="4.092493"/><g fill="#00d959" fill-rule="nonzero"><path d="m16.6389129 2.25909218c-.7793165-.33932929-1.3682207.49284004-3.1704638 1.69194709-1.3425052.89326035-2.7431157.72604326-2.7431157 2.19966829 0 .83216933 1.1346221 1.01681302 2.38251 1.55997483 1.4208295.61835076 2.5495625 1.20576441 3.4083811.56939963.4511006-.33423837.538651-1.54431047.7200335-2.91376748.1878605-1.41840814.3768987-2.68291391-.5973451-3.10722236z"/><path d="m14.9065012 14.6122989c-.3855718-.1320638-1.072445.3051824-2.7473897 1.323118-1.3755537.8360427-2.54723176.5496847-2.5306596 2.0260159.00609555.5351358.9802678 1.1706326 2.2192183 1.8572369 1.3550226.7510776 2.5879744 1.331944 3.444504.6953948.4498984-.3343352.6017237-1.7388756.6217025-3.1225768.0167169-1.1508612-.0027714-2.4347612-1.0073755-2.7791888z" transform="matrix(-.52991926 .8480481 -.8480481 -.52991926 34.541237 16.22928)"/><path d="m6.23403915 7.00232203c-.38529859-.13116093-.7710803.48283646-2.41229392 1.52806486-1.36058562.86660205-2.56297974.8544813-2.53555609 2.03171591.0125012.5348748.96212915 1.1959467 2.27699534 1.7161489 1.51093061.5978416 2.04288029 1.1672159 2.90095348.5287336.45070905-.3353505.35983954-1.5509552.3830199-2.9345946.01937968-1.15080995.39077274-2.52799358-.61311871-2.87006867z" transform="matrix(-.5591929 -.82903757 .82903757 -.5591929 -1.915378 19.053975)"/></g></g></svg>